MoBL_ARMS_module2_4_allmuscles_wrist_states		
version=1		
nRows=164		
nColumns=3		
inDegrees=yes		
		
# SIMM Motion File Header:		
name MoBL_ARMS_module2_4_allmuscles_wrist_states		
datacolumns 3		
datarows 164		
otherdata 1		
range 0 0.307216652		
endheader		
time	deviation	flexion
0	10.64	-22.413
0.001	10.63978562	-22.40716216
0.002	10.63915225	-22.38993276
0.003420204	10.63760043	-22.34709766
0.004840407	10.6354633	-22.28461412
0.00714923	10.63140349	-22.14662938
0.009204575	10.62801883	-21.9920181
0.011259919	10.62578598	-21.81369554
0.013315263	10.62555101	-21.617673
0.015370608	10.62794711	-21.41005043
0.01926206	10.640434	-21.00652687
0.02096574	10.64898395	-20.83339621
0.022669419	10.65907074	-20.66638037
0.026171453	10.68352444	-20.35192179
0.0316808	10.73091796	-19.96831344
0.035468261	10.77184359	-19.80236013
0.039255721	10.82328774	-19.7237935
0.043043182	10.88916003	-19.7329399
0.044890684	10.9276401	-19.76811988
0.046738186	10.97076948	-19.82245903
0.050585745	11.0765104	-19.99265194
0.053180861	11.16040146	-20.14664869
0.055775977	11.25446823	-20.32836762
0.056915442	11.298926	-20.41610122
0.058054908	11.34520823	-20.50830472
0.059811121	11.41986147	-20.6584523
0.062231718	11.52852594	-20.87931872
0.064529176	11.63654804	-21.10101579
0.066826635	11.74790465	-21.33139153
0.068614413	11.83606471	-21.51479967
0.069520662	11.88109934	-21.60871078
0.070426911	11.92634697	-21.7030999
0.072100213	12.01052404	-21.87838654
0.07383919	12.09900672	-22.06158139
0.075578166	12.18860761	-22.24529377
0.077317142	12.27937307	-22.42899239
0.079474955	12.39363865	-22.65634148
0.082014581	12.53035457	-22.92250455
0.083710005	12.62282892	-23.09913006
0.08540543	12.71612851	-23.27480916
0.087100854	12.81013421	-23.44942914
0.088942205	12.91287591	-23.63777925
0.091564309	13.06002055	-23.90344995
0.092887377	13.13451035	-24.03630895
0.094210446	13.20907859	-24.16834518
0.097223482	13.37894474	-24.46590312
0.098761776	13.46561588	-24.61607479
0.100300069	13.55225316	-24.76498115
0.102565667	13.67987138	-24.98174952
0.104248081	13.77476877	-25.14048758
0.105930495	13.86989697	-25.29697437
0.107612908	13.96535043	-25.45081972
0.109295322	14.06115324	-25.60158546
0.110977736	14.15728311	-25.74880311
0.112660149	14.25367203	-25.89196195
0.114342563	14.35023801	-26.03054123
0.115855012	14.43711396	-26.15077318
0.117367462	14.52398064	-26.26650456
0.118879912	14.6107643	-26.37736894
0.120742585	14.71744147	-26.50670029
0.122252827	14.80370166	-26.60532429
0.123763069	14.88971007	-26.69802986
0.12527331	14.97543404	-26.78451763
0.126783552	15.06086059	-26.86450776
0.128697661	15.16870067	-26.95613273
0.130061272	15.24524788	-27.01449717
0.131424882	15.32158092	-27.06691449
0.133368996	15.43009104	-27.1310557
0.134795811	15.50952706	-27.1700004
0.136222626	15.58882178	-27.20192589
0.137964338	15.68543292	-27.23127001
0.139458698	15.76815632	-27.24797473
0.140953058	15.8506986	-27.25686927
0.142447417	15.93302952	-27.258021
0.143941777	16.01510447	-27.25153192
0.145436137	16.09688389	-27.23754089
0.146930497	16.17832707	-27.21620469
0.148424856	16.25940983	-27.18769341
0.149919216	16.34011941	-27.15216873
0.151413576	16.42046866	-27.10978047
0.15324319	16.51840189	-27.04870672
0.153962317	16.55678558	-27.02197121
0.154631426	16.59245493	-26.99572007
0.154665414	16.59426579	-26.99435132
0.154699402	16.59607698	-26.99297981
0.154869341	16.60514102	-26.98608571
0.155719037	16.65064987	-26.95069731
0.158577436	16.80554478	-26.82012279
0.160771893	16.92572765	-26.70710456
0.161629539	16.97289139	-26.65970367
0.162742795	17.03423869	-26.59532787
0.162896607	17.04272476	-26.58617385
0.162955293	17.04596313	-26.58266438
0.163013978	17.04920061	-26.57914413
0.163307404	17.06536638	-26.5613704
0.164774536	17.14572582	-26.46815689
0.166787011	17.25506413	-26.32839066
0.16887685	17.36815733	-26.16857991
0.170966689	17.48151443	-25.9938498
0.172577631	17.56949387	-25.84915438
0.173780639	17.63567853	-25.7356522
0.174983648	17.70215156	-25.61778935
0.176785469	17.80171691	-25.43343689
0.179461671	17.94876191	-25.14257648
0.183757446	18.18218923	-24.63313135
0.185757304	18.29019746	-24.3780005
0.188134335	18.41858488	-24.05992782
0.190224676	18.53195481	-23.76697918
0.192315018	18.64625292	-23.46175078
0.19440536	18.76192828	-23.14440847
0.196495702	18.87940676	-22.81518255
0.199267476	19.0385981	-22.36083358
0.201045402	19.14308327	-22.05907611
0.202823329	19.24959668	-21.74955187
0.205749916	19.4294934	-21.22376535
0.208150072	19.58105519	-20.77793475
0.210550228	19.73548561	-20.31917464
0.212173062	19.84081513	-20.00161934
0.213795896	19.94636171	-19.67803159
0.216643313	20.13088877	-19.09545518
0.218539398	20.25255897	-18.69687407
0.22104641	20.41109662	-18.15655191
0.223134579	20.54054535	-17.69481419
0.225222748	20.66710226	-17.2223779
0.227452096	20.79842029	-16.70617833
0.229681445	20.92504241	-16.17784302
0.231910793	21.0460087	-15.63746033
0.234140141	21.1601658	-15.08519415
0.235944648	21.24671113	-14.62966877
0.237749155	21.32730721	-14.16682785
0.24068178	21.44389672	-13.39954232
0.243614405	21.54037125	-12.61397438
0.245438115	21.58932199	-12.11630924
0.247261825	21.62945067	-11.61160201
0.249085535	21.66075415	-11.09980921
0.250909245	21.68353763	-10.58094432
0.253198481	21.70067172	-9.919460988
0.255487717	21.70590825	-9.246278259
0.25765425	21.70094467	-8.597980983
0.260612448	21.68086353	-7.694375442
0.262557251	21.66069906	-7.088336062
0.264502054	21.63585107	-6.472766482
0.267154096	21.59542902	-5.618110007
0.268919582	21.56487111	-5.039591783
0.270685068	21.53181878	-4.453658199
0.272935815	21.48633824	-3.696329639
0.276324712	21.41089745	-2.535449552
0.277952049	21.37161371	-1.969817703
0.279943392	21.32072489	-1.270980358
0.282159606	21.26027503	-0.485184805
0.284068689	21.20482459	0.197975368
0.285977772	21.14608265	0.886448468
0.287886854	21.08389232	1.579788024
0.289579903	21.02569928	2.198373401
0.291272952	20.96449999	2.820119008
0.292673023	20.91150507	3.336436945
0.294073095	20.85627862	3.854527217
0.296498131	20.75505339	4.755577502
0.298609134	20.66085534	5.543175254
0.300433878	20.57462307	6.22596688
0.301992521	20.49728679	6.810388746
0.303551164	20.41645975	7.395715397
0.305383908	20.31683757	8.084884894
0.307216652	20.212175	8.774775993
